<mxfile host="app.diagrams.net" modified="2023-09-25T13:51:52.443Z" agent="Mozilla/5.0 (X11; Ubuntu; Linux x86_64; rv:109.0) Gecko/20100101 Firefox/117.0" etag="XfS7w6xA93Km1ZnuIfQ-" version="21.8.2" type="device">
  <diagram name="Page-1" id="PBCSHt_XHbKlwtqyhNGC">
    <mxGraphModel dx="2607" dy="1438" grid="0" gridSize="10" guides="1" tooltips="1" connect="1" arrows="1" fold="1" page="1" pageScale="1" pageWidth="700" pageHeight="900" math="0" shadow="0">
      <root>
        <mxCell id="0" />
        <mxCell id="1" parent="0" />
        <mxCell id="wyE4UO38VLwdI6MI5VVs-248" value="" style="rounded=0;whiteSpace=wrap;html=1;dashed=1;" vertex="1" parent="1">
          <mxGeometry x="440" y="10" width="232" height="202" as="geometry" />
        </mxCell>
        <mxCell id="wyE4UO38VLwdI6MI5VVs-247" value="" style="rounded=0;whiteSpace=wrap;html=1;dashed=1;" vertex="1" parent="1">
          <mxGeometry x="440" y="240" width="232" height="180" as="geometry" />
        </mxCell>
        <mxCell id="wyE4UO38VLwdI6MI5VVs-1" value="" style="rounded=0;whiteSpace=wrap;html=1;fillColor=#D55E00;fontSize=20;" vertex="1" parent="1">
          <mxGeometry x="10" y="10" width="80" height="40" as="geometry" />
        </mxCell>
        <mxCell id="wyE4UO38VLwdI6MI5VVs-2" value="" style="rounded=0;whiteSpace=wrap;html=1;fillColor=#0072B2;fontSize=20;" vertex="1" parent="1">
          <mxGeometry x="90" y="10" width="80" height="40" as="geometry" />
        </mxCell>
        <mxCell id="wyE4UO38VLwdI6MI5VVs-3" value="" style="rounded=0;whiteSpace=wrap;html=1;fillColor=#0072B2;fontSize=20;" vertex="1" parent="1">
          <mxGeometry x="170" y="10" width="80" height="40" as="geometry" />
        </mxCell>
        <mxCell id="wyE4UO38VLwdI6MI5VVs-4" value="" style="rounded=0;whiteSpace=wrap;html=1;fillColor=#0072B2;fontSize=20;" vertex="1" parent="1">
          <mxGeometry x="250" y="10" width="80" height="40" as="geometry" />
        </mxCell>
        <mxCell id="wyE4UO38VLwdI6MI5VVs-5" value="" style="rounded=0;whiteSpace=wrap;html=1;fillColor=#0072B2;fontSize=20;" vertex="1" parent="1">
          <mxGeometry x="330" y="10" width="80" height="40" as="geometry" />
        </mxCell>
        <mxCell id="wyE4UO38VLwdI6MI5VVs-33" value="" style="rounded=0;whiteSpace=wrap;html=1;fillColor=#56B4E9;fontSize=20;" vertex="1" parent="1">
          <mxGeometry x="330" y="60" width="80" height="20" as="geometry" />
        </mxCell>
        <mxCell id="wyE4UO38VLwdI6MI5VVs-34" value="" style="rounded=0;whiteSpace=wrap;html=1;fillColor=#E69F00;fontSize=20;" vertex="1" parent="1">
          <mxGeometry x="90" y="60" width="80" height="20" as="geometry" />
        </mxCell>
        <mxCell id="wyE4UO38VLwdI6MI5VVs-35" value="" style="rounded=0;whiteSpace=wrap;html=1;fillColor=#56B4E9;fontSize=20;" vertex="1" parent="1">
          <mxGeometry x="170" y="60" width="80" height="20" as="geometry" />
        </mxCell>
        <mxCell id="wyE4UO38VLwdI6MI5VVs-36" value="" style="rounded=0;whiteSpace=wrap;html=1;fillColor=#56B4E9;fontSize=20;" vertex="1" parent="1">
          <mxGeometry x="250" y="60" width="80" height="20" as="geometry" />
        </mxCell>
        <mxCell id="wyE4UO38VLwdI6MI5VVs-49" value="" style="rounded=0;whiteSpace=wrap;html=1;fillColor=#56B4E9;fontSize=20;" vertex="1" parent="1">
          <mxGeometry x="330" y="90" width="80" height="20" as="geometry" />
        </mxCell>
        <mxCell id="wyE4UO38VLwdI6MI5VVs-50" value="" style="rounded=0;whiteSpace=wrap;html=1;fillColor=#56B4E9;fontSize=20;" vertex="1" parent="1">
          <mxGeometry x="90" y="90" width="80" height="20" as="geometry" />
        </mxCell>
        <mxCell id="wyE4UO38VLwdI6MI5VVs-51" value="" style="rounded=0;whiteSpace=wrap;html=1;fillColor=#E69F00;fontSize=20;" vertex="1" parent="1">
          <mxGeometry x="170" y="90" width="80" height="20" as="geometry" />
        </mxCell>
        <mxCell id="wyE4UO38VLwdI6MI5VVs-52" value="" style="rounded=0;whiteSpace=wrap;html=1;fillColor=#56B4E9;fontSize=20;" vertex="1" parent="1">
          <mxGeometry x="250" y="90" width="80" height="20" as="geometry" />
        </mxCell>
        <mxCell id="wyE4UO38VLwdI6MI5VVs-53" value="" style="rounded=0;whiteSpace=wrap;html=1;fillColor=#56B4E9;fontSize=20;" vertex="1" parent="1">
          <mxGeometry x="330" y="120" width="80" height="20" as="geometry" />
        </mxCell>
        <mxCell id="wyE4UO38VLwdI6MI5VVs-54" value="" style="rounded=0;whiteSpace=wrap;html=1;fillColor=#56B4E9;fontSize=20;" vertex="1" parent="1">
          <mxGeometry x="90" y="120" width="80" height="20" as="geometry" />
        </mxCell>
        <mxCell id="wyE4UO38VLwdI6MI5VVs-55" value="" style="rounded=0;whiteSpace=wrap;html=1;fillColor=#56B4E9;fontSize=20;" vertex="1" parent="1">
          <mxGeometry x="170" y="120" width="80" height="20" as="geometry" />
        </mxCell>
        <mxCell id="wyE4UO38VLwdI6MI5VVs-56" value="" style="rounded=0;whiteSpace=wrap;html=1;fillColor=#E69F00;fontSize=20;" vertex="1" parent="1">
          <mxGeometry x="250" y="120" width="80" height="20" as="geometry" />
        </mxCell>
        <mxCell id="wyE4UO38VLwdI6MI5VVs-57" value="" style="rounded=0;whiteSpace=wrap;html=1;fillColor=#E69F00;fontSize=20;" vertex="1" parent="1">
          <mxGeometry x="330" y="150" width="80" height="20" as="geometry" />
        </mxCell>
        <mxCell id="wyE4UO38VLwdI6MI5VVs-58" value="" style="rounded=0;whiteSpace=wrap;html=1;fillColor=#56B4E9;fontSize=20;" vertex="1" parent="1">
          <mxGeometry x="90" y="150" width="80" height="20" as="geometry" />
        </mxCell>
        <mxCell id="wyE4UO38VLwdI6MI5VVs-59" value="" style="rounded=0;whiteSpace=wrap;html=1;fillColor=#56B4E9;fontSize=20;" vertex="1" parent="1">
          <mxGeometry x="170" y="150" width="80" height="20" as="geometry" />
        </mxCell>
        <mxCell id="wyE4UO38VLwdI6MI5VVs-60" value="" style="rounded=0;whiteSpace=wrap;html=1;fillColor=#56B4E9;fontSize=20;" vertex="1" parent="1">
          <mxGeometry x="250" y="150" width="80" height="20" as="geometry" />
        </mxCell>
        <mxCell id="wyE4UO38VLwdI6MI5VVs-61" value="" style="rounded=0;whiteSpace=wrap;html=1;fillColor=#0072B2;fontSize=20;" vertex="1" parent="1">
          <mxGeometry x="10" y="190" width="80" height="40" as="geometry" />
        </mxCell>
        <mxCell id="wyE4UO38VLwdI6MI5VVs-62" value="" style="rounded=0;whiteSpace=wrap;html=1;fillColor=#D55E00;fontSize=20;" vertex="1" parent="1">
          <mxGeometry x="90" y="190" width="80" height="40" as="geometry" />
        </mxCell>
        <mxCell id="wyE4UO38VLwdI6MI5VVs-63" value="" style="rounded=0;whiteSpace=wrap;html=1;fillColor=#0072B2;fontSize=20;" vertex="1" parent="1">
          <mxGeometry x="170" y="190" width="80" height="40" as="geometry" />
        </mxCell>
        <mxCell id="wyE4UO38VLwdI6MI5VVs-64" value="" style="rounded=0;whiteSpace=wrap;html=1;fillColor=#0072B2;fontSize=20;" vertex="1" parent="1">
          <mxGeometry x="250" y="190" width="80" height="40" as="geometry" />
        </mxCell>
        <mxCell id="wyE4UO38VLwdI6MI5VVs-65" value="" style="rounded=0;whiteSpace=wrap;html=1;fillColor=#0072B2;fontSize=20;" vertex="1" parent="1">
          <mxGeometry x="330" y="190" width="80" height="40" as="geometry" />
        </mxCell>
        <mxCell id="wyE4UO38VLwdI6MI5VVs-82" value="" style="rounded=0;whiteSpace=wrap;html=1;fillColor=#0072B2;fontSize=20;" vertex="1" parent="1">
          <mxGeometry x="10" y="370" width="80" height="40" as="geometry" />
        </mxCell>
        <mxCell id="wyE4UO38VLwdI6MI5VVs-83" value="" style="rounded=0;whiteSpace=wrap;html=1;fillColor=#0072B2;fontSize=20;" vertex="1" parent="1">
          <mxGeometry x="90" y="370" width="80" height="40" as="geometry" />
        </mxCell>
        <mxCell id="wyE4UO38VLwdI6MI5VVs-84" value="" style="rounded=0;whiteSpace=wrap;html=1;fillColor=#D55E00;fontSize=20;" vertex="1" parent="1">
          <mxGeometry x="170" y="370" width="80" height="40" as="geometry" />
        </mxCell>
        <mxCell id="wyE4UO38VLwdI6MI5VVs-85" value="" style="rounded=0;whiteSpace=wrap;html=1;fillColor=#0072B2;fontSize=20;" vertex="1" parent="1">
          <mxGeometry x="250" y="370" width="80" height="40" as="geometry" />
        </mxCell>
        <mxCell id="wyE4UO38VLwdI6MI5VVs-86" value="" style="rounded=0;whiteSpace=wrap;html=1;fillColor=#0072B2;fontSize=20;" vertex="1" parent="1">
          <mxGeometry x="330" y="370" width="80" height="40" as="geometry" />
        </mxCell>
        <mxCell id="wyE4UO38VLwdI6MI5VVs-103" value="" style="rounded=0;whiteSpace=wrap;html=1;fillColor=#0072B2;fontSize=20;" vertex="1" parent="1">
          <mxGeometry x="10" y="550" width="80" height="40" as="geometry" />
        </mxCell>
        <mxCell id="wyE4UO38VLwdI6MI5VVs-104" value="" style="rounded=0;whiteSpace=wrap;html=1;fillColor=#0072B2;fontSize=20;" vertex="1" parent="1">
          <mxGeometry x="90" y="550" width="80" height="40" as="geometry" />
        </mxCell>
        <mxCell id="wyE4UO38VLwdI6MI5VVs-105" value="" style="rounded=0;whiteSpace=wrap;html=1;fillColor=#0072B2;fontSize=20;" vertex="1" parent="1">
          <mxGeometry x="170" y="550" width="80" height="40" as="geometry" />
        </mxCell>
        <mxCell id="wyE4UO38VLwdI6MI5VVs-106" value="" style="rounded=0;whiteSpace=wrap;html=1;fillColor=#D55E00;fontSize=20;" vertex="1" parent="1">
          <mxGeometry x="250" y="550" width="80" height="40" as="geometry" />
        </mxCell>
        <mxCell id="wyE4UO38VLwdI6MI5VVs-107" value="" style="rounded=0;whiteSpace=wrap;html=1;fillColor=#0072B2;fontSize=20;" vertex="1" parent="1">
          <mxGeometry x="330" y="550" width="80" height="40" as="geometry" />
        </mxCell>
        <mxCell id="wyE4UO38VLwdI6MI5VVs-124" value="" style="rounded=0;whiteSpace=wrap;html=1;fillColor=#0072B2;fontSize=20;" vertex="1" parent="1">
          <mxGeometry x="10" y="730" width="80" height="40" as="geometry" />
        </mxCell>
        <mxCell id="wyE4UO38VLwdI6MI5VVs-125" value="" style="rounded=0;whiteSpace=wrap;html=1;fillColor=#0072B2;fontSize=20;" vertex="1" parent="1">
          <mxGeometry x="90" y="730" width="80" height="40" as="geometry" />
        </mxCell>
        <mxCell id="wyE4UO38VLwdI6MI5VVs-126" value="" style="rounded=0;whiteSpace=wrap;html=1;fillColor=#0072B2;fontSize=20;" vertex="1" parent="1">
          <mxGeometry x="170" y="730" width="80" height="40" as="geometry" />
        </mxCell>
        <mxCell id="wyE4UO38VLwdI6MI5VVs-127" value="" style="rounded=0;whiteSpace=wrap;html=1;fillColor=#0072B2;fontSize=20;" vertex="1" parent="1">
          <mxGeometry x="250" y="730" width="80" height="40" as="geometry" />
        </mxCell>
        <mxCell id="wyE4UO38VLwdI6MI5VVs-128" value="" style="rounded=0;whiteSpace=wrap;html=1;fillColor=#D55E00;fontSize=20;" vertex="1" parent="1">
          <mxGeometry x="330" y="730" width="80" height="40" as="geometry" />
        </mxCell>
        <mxCell id="wyE4UO38VLwdI6MI5VVs-145" value="" style="rounded=0;whiteSpace=wrap;html=1;fillColor=#56B4E9;fontSize=20;" vertex="1" parent="1">
          <mxGeometry x="330" y="240" width="80" height="20" as="geometry" />
        </mxCell>
        <mxCell id="wyE4UO38VLwdI6MI5VVs-146" value="" style="rounded=0;whiteSpace=wrap;html=1;fillColor=#E69F00;fontSize=20;" vertex="1" parent="1">
          <mxGeometry x="10" y="240" width="80" height="20" as="geometry" />
        </mxCell>
        <mxCell id="wyE4UO38VLwdI6MI5VVs-147" value="" style="rounded=0;whiteSpace=wrap;html=1;fillColor=#56B4E9;fontSize=20;" vertex="1" parent="1">
          <mxGeometry x="170" y="240" width="80" height="20" as="geometry" />
        </mxCell>
        <mxCell id="wyE4UO38VLwdI6MI5VVs-148" value="" style="rounded=0;whiteSpace=wrap;html=1;fillColor=#56B4E9;fontSize=20;" vertex="1" parent="1">
          <mxGeometry x="250" y="240" width="80" height="20" as="geometry" />
        </mxCell>
        <mxCell id="wyE4UO38VLwdI6MI5VVs-149" value="" style="rounded=0;whiteSpace=wrap;html=1;fillColor=#56B4E9;fontSize=20;" vertex="1" parent="1">
          <mxGeometry x="330" y="270" width="80" height="20" as="geometry" />
        </mxCell>
        <mxCell id="wyE4UO38VLwdI6MI5VVs-150" value="" style="rounded=0;whiteSpace=wrap;html=1;fillColor=#56B4E9;fontSize=20;" vertex="1" parent="1">
          <mxGeometry x="10" y="270" width="80" height="20" as="geometry" />
        </mxCell>
        <mxCell id="wyE4UO38VLwdI6MI5VVs-151" value="" style="rounded=0;whiteSpace=wrap;html=1;fillColor=#E69F00;fontSize=20;" vertex="1" parent="1">
          <mxGeometry x="170" y="270" width="80" height="20" as="geometry" />
        </mxCell>
        <mxCell id="wyE4UO38VLwdI6MI5VVs-152" value="" style="rounded=0;whiteSpace=wrap;html=1;fillColor=#56B4E9;fontSize=20;" vertex="1" parent="1">
          <mxGeometry x="250" y="270" width="80" height="20" as="geometry" />
        </mxCell>
        <mxCell id="wyE4UO38VLwdI6MI5VVs-153" value="" style="rounded=0;whiteSpace=wrap;html=1;fillColor=#56B4E9;fontSize=20;" vertex="1" parent="1">
          <mxGeometry x="330" y="300" width="80" height="20" as="geometry" />
        </mxCell>
        <mxCell id="wyE4UO38VLwdI6MI5VVs-154" value="" style="rounded=0;whiteSpace=wrap;html=1;fillColor=#56B4E9;fontSize=20;" vertex="1" parent="1">
          <mxGeometry x="10" y="300" width="80" height="20" as="geometry" />
        </mxCell>
        <mxCell id="wyE4UO38VLwdI6MI5VVs-155" value="" style="rounded=0;whiteSpace=wrap;html=1;fillColor=#56B4E9;fontSize=20;" vertex="1" parent="1">
          <mxGeometry x="170" y="300" width="80" height="20" as="geometry" />
        </mxCell>
        <mxCell id="wyE4UO38VLwdI6MI5VVs-156" value="" style="rounded=0;whiteSpace=wrap;html=1;fillColor=#E69F00;fontSize=20;" vertex="1" parent="1">
          <mxGeometry x="250" y="300" width="80" height="20" as="geometry" />
        </mxCell>
        <mxCell id="wyE4UO38VLwdI6MI5VVs-157" value="" style="rounded=0;whiteSpace=wrap;html=1;fillColor=#E69F00;fontSize=20;" vertex="1" parent="1">
          <mxGeometry x="330" y="330" width="80" height="20" as="geometry" />
        </mxCell>
        <mxCell id="wyE4UO38VLwdI6MI5VVs-158" value="" style="rounded=0;whiteSpace=wrap;html=1;fillColor=#56B4E9;fontSize=20;" vertex="1" parent="1">
          <mxGeometry x="10" y="330" width="80" height="20" as="geometry" />
        </mxCell>
        <mxCell id="wyE4UO38VLwdI6MI5VVs-159" value="" style="rounded=0;whiteSpace=wrap;html=1;fillColor=#56B4E9;fontSize=20;" vertex="1" parent="1">
          <mxGeometry x="170" y="330" width="80" height="20" as="geometry" />
        </mxCell>
        <mxCell id="wyE4UO38VLwdI6MI5VVs-160" value="" style="rounded=0;whiteSpace=wrap;html=1;fillColor=#56B4E9;fontSize=20;" vertex="1" parent="1">
          <mxGeometry x="250" y="330" width="80" height="20" as="geometry" />
        </mxCell>
        <mxCell id="wyE4UO38VLwdI6MI5VVs-161" value="" style="rounded=0;whiteSpace=wrap;html=1;fillColor=#56B4E9;fontSize=20;" vertex="1" parent="1">
          <mxGeometry x="330" y="420" width="80" height="20" as="geometry" />
        </mxCell>
        <mxCell id="wyE4UO38VLwdI6MI5VVs-162" value="" style="rounded=0;whiteSpace=wrap;html=1;fillColor=#E69F00;fontSize=20;" vertex="1" parent="1">
          <mxGeometry x="10" y="420" width="80" height="20" as="geometry" />
        </mxCell>
        <mxCell id="wyE4UO38VLwdI6MI5VVs-163" value="" style="rounded=0;whiteSpace=wrap;html=1;fillColor=#56B4E9;fontSize=20;" vertex="1" parent="1">
          <mxGeometry x="90" y="420" width="80" height="20" as="geometry" />
        </mxCell>
        <mxCell id="wyE4UO38VLwdI6MI5VVs-164" value="" style="rounded=0;whiteSpace=wrap;html=1;fillColor=#56B4E9;fontSize=20;" vertex="1" parent="1">
          <mxGeometry x="250" y="420" width="80" height="20" as="geometry" />
        </mxCell>
        <mxCell id="wyE4UO38VLwdI6MI5VVs-165" value="" style="rounded=0;whiteSpace=wrap;html=1;fillColor=#56B4E9;fontSize=20;" vertex="1" parent="1">
          <mxGeometry x="330" y="450" width="80" height="20" as="geometry" />
        </mxCell>
        <mxCell id="wyE4UO38VLwdI6MI5VVs-166" value="" style="rounded=0;whiteSpace=wrap;html=1;fillColor=#56B4E9;fontSize=20;" vertex="1" parent="1">
          <mxGeometry x="10" y="450" width="80" height="20" as="geometry" />
        </mxCell>
        <mxCell id="wyE4UO38VLwdI6MI5VVs-167" value="" style="rounded=0;whiteSpace=wrap;html=1;fillColor=#E69F00;fontSize=20;" vertex="1" parent="1">
          <mxGeometry x="90" y="450" width="80" height="20" as="geometry" />
        </mxCell>
        <mxCell id="wyE4UO38VLwdI6MI5VVs-168" value="" style="rounded=0;whiteSpace=wrap;html=1;fillColor=#56B4E9;fontSize=20;" vertex="1" parent="1">
          <mxGeometry x="250" y="450" width="80" height="20" as="geometry" />
        </mxCell>
        <mxCell id="wyE4UO38VLwdI6MI5VVs-169" value="" style="rounded=0;whiteSpace=wrap;html=1;fillColor=#56B4E9;fontSize=20;" vertex="1" parent="1">
          <mxGeometry x="330" y="480" width="80" height="20" as="geometry" />
        </mxCell>
        <mxCell id="wyE4UO38VLwdI6MI5VVs-170" value="" style="rounded=0;whiteSpace=wrap;html=1;fillColor=#56B4E9;fontSize=20;" vertex="1" parent="1">
          <mxGeometry x="10" y="480" width="80" height="20" as="geometry" />
        </mxCell>
        <mxCell id="wyE4UO38VLwdI6MI5VVs-171" value="" style="rounded=0;whiteSpace=wrap;html=1;fillColor=#56B4E9;fontSize=20;" vertex="1" parent="1">
          <mxGeometry x="90" y="480" width="80" height="20" as="geometry" />
        </mxCell>
        <mxCell id="wyE4UO38VLwdI6MI5VVs-172" value="" style="rounded=0;whiteSpace=wrap;html=1;fillColor=#E69F00;fontSize=20;" vertex="1" parent="1">
          <mxGeometry x="250" y="480" width="80" height="20" as="geometry" />
        </mxCell>
        <mxCell id="wyE4UO38VLwdI6MI5VVs-173" value="" style="rounded=0;whiteSpace=wrap;html=1;fillColor=#E69F00;fontSize=20;" vertex="1" parent="1">
          <mxGeometry x="330" y="510" width="80" height="20" as="geometry" />
        </mxCell>
        <mxCell id="wyE4UO38VLwdI6MI5VVs-174" value="" style="rounded=0;whiteSpace=wrap;html=1;fillColor=#56B4E9;fontSize=20;" vertex="1" parent="1">
          <mxGeometry x="10" y="510" width="80" height="20" as="geometry" />
        </mxCell>
        <mxCell id="wyE4UO38VLwdI6MI5VVs-175" value="" style="rounded=0;whiteSpace=wrap;html=1;fillColor=#56B4E9;fontSize=20;" vertex="1" parent="1">
          <mxGeometry x="90" y="510" width="80" height="20" as="geometry" />
        </mxCell>
        <mxCell id="wyE4UO38VLwdI6MI5VVs-176" value="" style="rounded=0;whiteSpace=wrap;html=1;fillColor=#56B4E9;fontSize=20;" vertex="1" parent="1">
          <mxGeometry x="250" y="510" width="80" height="20" as="geometry" />
        </mxCell>
        <mxCell id="wyE4UO38VLwdI6MI5VVs-177" value="" style="rounded=0;whiteSpace=wrap;html=1;fillColor=#56B4E9;fontSize=20;" vertex="1" parent="1">
          <mxGeometry x="330" y="600" width="80" height="20" as="geometry" />
        </mxCell>
        <mxCell id="wyE4UO38VLwdI6MI5VVs-178" value="" style="rounded=0;whiteSpace=wrap;html=1;fillColor=#E69F00;fontSize=20;" vertex="1" parent="1">
          <mxGeometry x="10" y="600" width="80" height="20" as="geometry" />
        </mxCell>
        <mxCell id="wyE4UO38VLwdI6MI5VVs-179" value="" style="rounded=0;whiteSpace=wrap;html=1;fillColor=#56B4E9;fontSize=20;" vertex="1" parent="1">
          <mxGeometry x="90" y="600" width="80" height="20" as="geometry" />
        </mxCell>
        <mxCell id="wyE4UO38VLwdI6MI5VVs-180" value="" style="rounded=0;whiteSpace=wrap;html=1;fillColor=#56B4E9;fontSize=20;" vertex="1" parent="1">
          <mxGeometry x="170" y="600" width="80" height="20" as="geometry" />
        </mxCell>
        <mxCell id="wyE4UO38VLwdI6MI5VVs-181" value="" style="rounded=0;whiteSpace=wrap;html=1;fillColor=#56B4E9;fontSize=20;" vertex="1" parent="1">
          <mxGeometry x="330" y="630" width="80" height="20" as="geometry" />
        </mxCell>
        <mxCell id="wyE4UO38VLwdI6MI5VVs-182" value="" style="rounded=0;whiteSpace=wrap;html=1;fillColor=#56B4E9;fontSize=20;" vertex="1" parent="1">
          <mxGeometry x="10" y="630" width="80" height="20" as="geometry" />
        </mxCell>
        <mxCell id="wyE4UO38VLwdI6MI5VVs-183" value="" style="rounded=0;whiteSpace=wrap;html=1;fillColor=#E69F00;fontSize=20;" vertex="1" parent="1">
          <mxGeometry x="90" y="630" width="80" height="20" as="geometry" />
        </mxCell>
        <mxCell id="wyE4UO38VLwdI6MI5VVs-184" value="" style="rounded=0;whiteSpace=wrap;html=1;fillColor=#56B4E9;fontSize=20;" vertex="1" parent="1">
          <mxGeometry x="170" y="630" width="80" height="20" as="geometry" />
        </mxCell>
        <mxCell id="wyE4UO38VLwdI6MI5VVs-185" value="" style="rounded=0;whiteSpace=wrap;html=1;fillColor=#56B4E9;fontSize=20;" vertex="1" parent="1">
          <mxGeometry x="330" y="660" width="80" height="20" as="geometry" />
        </mxCell>
        <mxCell id="wyE4UO38VLwdI6MI5VVs-186" value="" style="rounded=0;whiteSpace=wrap;html=1;fillColor=#56B4E9;fontSize=20;" vertex="1" parent="1">
          <mxGeometry x="10" y="660" width="80" height="20" as="geometry" />
        </mxCell>
        <mxCell id="wyE4UO38VLwdI6MI5VVs-187" value="" style="rounded=0;whiteSpace=wrap;html=1;fillColor=#56B4E9;fontSize=20;" vertex="1" parent="1">
          <mxGeometry x="90" y="660" width="80" height="20" as="geometry" />
        </mxCell>
        <mxCell id="wyE4UO38VLwdI6MI5VVs-188" value="" style="rounded=0;whiteSpace=wrap;html=1;fillColor=#E69F00;fontSize=20;" vertex="1" parent="1">
          <mxGeometry x="170" y="660" width="80" height="20" as="geometry" />
        </mxCell>
        <mxCell id="wyE4UO38VLwdI6MI5VVs-189" value="" style="rounded=0;whiteSpace=wrap;html=1;fillColor=#E69F00;fontSize=20;" vertex="1" parent="1">
          <mxGeometry x="330" y="690" width="80" height="20" as="geometry" />
        </mxCell>
        <mxCell id="wyE4UO38VLwdI6MI5VVs-190" value="" style="rounded=0;whiteSpace=wrap;html=1;fillColor=#56B4E9;fontSize=20;" vertex="1" parent="1">
          <mxGeometry x="10" y="690" width="80" height="20" as="geometry" />
        </mxCell>
        <mxCell id="wyE4UO38VLwdI6MI5VVs-191" value="" style="rounded=0;whiteSpace=wrap;html=1;fillColor=#56B4E9;fontSize=20;" vertex="1" parent="1">
          <mxGeometry x="90" y="690" width="80" height="20" as="geometry" />
        </mxCell>
        <mxCell id="wyE4UO38VLwdI6MI5VVs-192" value="" style="rounded=0;whiteSpace=wrap;html=1;fillColor=#56B4E9;fontSize=20;" vertex="1" parent="1">
          <mxGeometry x="170" y="690" width="80" height="20" as="geometry" />
        </mxCell>
        <mxCell id="wyE4UO38VLwdI6MI5VVs-193" value="" style="rounded=0;whiteSpace=wrap;html=1;fillColor=#56B4E9;fontSize=20;" vertex="1" parent="1">
          <mxGeometry x="250" y="780" width="80" height="20" as="geometry" />
        </mxCell>
        <mxCell id="wyE4UO38VLwdI6MI5VVs-194" value="" style="rounded=0;whiteSpace=wrap;html=1;fillColor=#E69F00;fontSize=20;" vertex="1" parent="1">
          <mxGeometry x="10" y="780" width="80" height="20" as="geometry" />
        </mxCell>
        <mxCell id="wyE4UO38VLwdI6MI5VVs-195" value="" style="rounded=0;whiteSpace=wrap;html=1;fillColor=#56B4E9;fontSize=20;" vertex="1" parent="1">
          <mxGeometry x="90" y="780" width="80" height="20" as="geometry" />
        </mxCell>
        <mxCell id="wyE4UO38VLwdI6MI5VVs-196" value="" style="rounded=0;whiteSpace=wrap;html=1;fillColor=#56B4E9;fontSize=20;" vertex="1" parent="1">
          <mxGeometry x="170" y="780" width="80" height="20" as="geometry" />
        </mxCell>
        <mxCell id="wyE4UO38VLwdI6MI5VVs-197" value="" style="rounded=0;whiteSpace=wrap;html=1;fillColor=#56B4E9;fontSize=20;" vertex="1" parent="1">
          <mxGeometry x="250" y="810" width="80" height="20" as="geometry" />
        </mxCell>
        <mxCell id="wyE4UO38VLwdI6MI5VVs-198" value="" style="rounded=0;whiteSpace=wrap;html=1;fillColor=#56B4E9;fontSize=20;" vertex="1" parent="1">
          <mxGeometry x="10" y="810" width="80" height="20" as="geometry" />
        </mxCell>
        <mxCell id="wyE4UO38VLwdI6MI5VVs-199" value="" style="rounded=0;whiteSpace=wrap;html=1;fillColor=#E69F00;fontSize=20;" vertex="1" parent="1">
          <mxGeometry x="90" y="810" width="80" height="20" as="geometry" />
        </mxCell>
        <mxCell id="wyE4UO38VLwdI6MI5VVs-200" value="" style="rounded=0;whiteSpace=wrap;html=1;fillColor=#56B4E9;fontSize=20;" vertex="1" parent="1">
          <mxGeometry x="170" y="810" width="80" height="20" as="geometry" />
        </mxCell>
        <mxCell id="wyE4UO38VLwdI6MI5VVs-201" value="" style="rounded=0;whiteSpace=wrap;html=1;fillColor=#56B4E9;fontSize=20;" vertex="1" parent="1">
          <mxGeometry x="250" y="840" width="80" height="20" as="geometry" />
        </mxCell>
        <mxCell id="wyE4UO38VLwdI6MI5VVs-202" value="" style="rounded=0;whiteSpace=wrap;html=1;fillColor=#56B4E9;fontSize=20;" vertex="1" parent="1">
          <mxGeometry x="10" y="840" width="80" height="20" as="geometry" />
        </mxCell>
        <mxCell id="wyE4UO38VLwdI6MI5VVs-203" value="" style="rounded=0;whiteSpace=wrap;html=1;fillColor=#56B4E9;fontSize=20;" vertex="1" parent="1">
          <mxGeometry x="90" y="840" width="80" height="20" as="geometry" />
        </mxCell>
        <mxCell id="wyE4UO38VLwdI6MI5VVs-204" value="" style="rounded=0;whiteSpace=wrap;html=1;fillColor=#E69F00;fontSize=20;" vertex="1" parent="1">
          <mxGeometry x="170" y="840" width="80" height="20" as="geometry" />
        </mxCell>
        <mxCell id="wyE4UO38VLwdI6MI5VVs-205" value="" style="rounded=0;whiteSpace=wrap;html=1;fillColor=#E69F00;fontSize=20;" vertex="1" parent="1">
          <mxGeometry x="250" y="870" width="80" height="20" as="geometry" />
        </mxCell>
        <mxCell id="wyE4UO38VLwdI6MI5VVs-206" value="" style="rounded=0;whiteSpace=wrap;html=1;fillColor=#56B4E9;fontSize=20;" vertex="1" parent="1">
          <mxGeometry x="10" y="870" width="80" height="20" as="geometry" />
        </mxCell>
        <mxCell id="wyE4UO38VLwdI6MI5VVs-207" value="" style="rounded=0;whiteSpace=wrap;html=1;fillColor=#56B4E9;fontSize=20;" vertex="1" parent="1">
          <mxGeometry x="90" y="870" width="80" height="20" as="geometry" />
        </mxCell>
        <mxCell id="wyE4UO38VLwdI6MI5VVs-208" value="" style="rounded=0;whiteSpace=wrap;html=1;fillColor=#56B4E9;fontSize=20;" vertex="1" parent="1">
          <mxGeometry x="170" y="870" width="80" height="20" as="geometry" />
        </mxCell>
        <mxCell id="wyE4UO38VLwdI6MI5VVs-219" value="" style="rounded=0;whiteSpace=wrap;html=1;fillColor=#D55E00;fontFamily=Source Sans Pro;fontSize=20;" vertex="1" parent="1">
          <mxGeometry x="458" y="106" width="80" height="40" as="geometry" />
        </mxCell>
        <mxCell id="wyE4UO38VLwdI6MI5VVs-220" value="" style="rounded=0;whiteSpace=wrap;html=1;fillColor=#0072B2;fontFamily=Source Sans Pro;fontSize=20;" vertex="1" parent="1">
          <mxGeometry x="458" y="158" width="80" height="40" as="geometry" />
        </mxCell>
        <mxCell id="wyE4UO38VLwdI6MI5VVs-221" value="" style="rounded=0;whiteSpace=wrap;html=1;fillColor=#E69F00;fontFamily=Source Sans Pro;fontSize=20;" vertex="1" parent="1">
          <mxGeometry x="455.5" y="349" width="80" height="20" as="geometry" />
        </mxCell>
        <mxCell id="wyE4UO38VLwdI6MI5VVs-223" value="test set" style="rounded=0;whiteSpace=wrap;html=1;fillColor=#FFFFFF;fontFamily=Source Sans Pro;fontSize=20;strokeColor=none;align=left;" vertex="1" parent="1">
          <mxGeometry x="548" y="108" width="100" height="40" as="geometry" />
        </mxCell>
        <mxCell id="wyE4UO38VLwdI6MI5VVs-224" value="training set" style="rounded=0;whiteSpace=wrap;html=1;fillColor=#FFFFFF;fontFamily=Source Sans Pro;fontSize=20;strokeColor=none;align=left;" vertex="1" parent="1">
          <mxGeometry x="548" y="158" width="100" height="40" as="geometry" />
        </mxCell>
        <mxCell id="wyE4UO38VLwdI6MI5VVs-228" value="test set" style="rounded=0;whiteSpace=wrap;html=1;fillColor=#FFFFFF;fontFamily=Source Sans Pro;fontSize=20;labelBorderColor=none;strokeColor=none;align=left;" vertex="1" parent="1">
          <mxGeometry x="545.5" y="349" width="100" height="20" as="geometry" />
        </mxCell>
        <mxCell id="wyE4UO38VLwdI6MI5VVs-229" value="training set" style="rounded=0;whiteSpace=wrap;html=1;fillColor=#FFFFFF;fontFamily=Source Sans Pro;fontSize=20;strokeColor=none;align=left;" vertex="1" parent="1">
          <mxGeometry x="545.5" y="379" width="100" height="20" as="geometry" />
        </mxCell>
        <mxCell id="wyE4UO38VLwdI6MI5VVs-230" value="&lt;div style=&quot;font-size: 20px;&quot;&gt;&lt;b style=&quot;font-size: 20px;&quot;&gt;&lt;font face=&quot;Source Sans Pro&quot; style=&quot;font-size: 20px;&quot;&gt;inner resampling&lt;/font&gt;&lt;/b&gt;&lt;/div&gt;&lt;div style=&quot;font-size: 20px;&quot;&gt;&lt;font face=&quot;Source Sans Pro&quot; style=&quot;font-size: 20px;&quot;&gt;4-fold spatial CV&lt;/font&gt;&lt;/div&gt;&lt;div style=&quot;font-size: 20px;&quot;&gt;&lt;font face=&quot;Source Sans Pro&quot; style=&quot;font-size: 20px;&quot;&gt;hyperparameter tuning&lt;/font&gt;&lt;/div&gt;" style="text;html=1;strokeColor=none;fillColor=none;align=left;verticalAlign=middle;whiteSpace=wrap;rounded=0;fontFamily=Source Sans Pro;fontSize=20;" vertex="1" parent="1">
          <mxGeometry x="458" y="248" width="210" height="80" as="geometry" />
        </mxCell>
        <mxCell id="wyE4UO38VLwdI6MI5VVs-231" value="" style="rounded=0;whiteSpace=wrap;html=1;fillColor=#56B4E9;fontFamily=Source Sans Pro;fontSize=20;" vertex="1" parent="1">
          <mxGeometry x="455.5" y="379" width="80" height="20" as="geometry" />
        </mxCell>
        <mxCell id="wyE4UO38VLwdI6MI5VVs-232" value="" style="shape=curlyBracket;whiteSpace=wrap;html=1;rounded=1;flipH=1;labelPosition=right;verticalLabelPosition=middle;align=left;verticalAlign=middle;fontSize=20;" vertex="1" parent="1">
          <mxGeometry x="428" y="600" width="40" height="110" as="geometry" />
        </mxCell>
        <mxCell id="wyE4UO38VLwdI6MI5VVs-233" value="hyperparameter tuning" style="text;html=1;strokeColor=none;fillColor=none;align=left;verticalAlign=middle;whiteSpace=wrap;rounded=0;fontFamily=Source Sans Pro;fontSize=20;" vertex="1" parent="1">
          <mxGeometry x="498" y="615" width="150" height="80" as="geometry" />
        </mxCell>
        <mxCell id="wyE4UO38VLwdI6MI5VVs-234" value="" style="shape=curlyBracket;whiteSpace=wrap;html=1;rounded=1;flipH=1;labelPosition=right;verticalLabelPosition=middle;align=left;verticalAlign=middle;fontSize=20;" vertex="1" parent="1">
          <mxGeometry x="428" y="777" width="40" height="110" as="geometry" />
        </mxCell>
        <mxCell id="wyE4UO38VLwdI6MI5VVs-244" value="&lt;div style=&quot;font-size: 20px;&quot;&gt;&lt;b style=&quot;font-size: 20px;&quot;&gt;&lt;font face=&quot;Source Sans Pro&quot; style=&quot;font-size: 20px;&quot;&gt;outer resampling&lt;/font&gt;&lt;/b&gt;&lt;/div&gt;&lt;div style=&quot;font-size: 20px;&quot;&gt;&lt;font face=&quot;Source Sans Pro&quot; style=&quot;font-size: 20px;&quot;&gt;5-fold spatial CV&lt;/font&gt;&lt;/div&gt;&lt;div&gt;performance estimation&lt;br&gt;&lt;/div&gt;" style="text;html=1;strokeColor=none;fillColor=none;align=left;verticalAlign=middle;whiteSpace=wrap;rounded=0;fontFamily=Source Sans Pro;fontSize=20;labelBorderColor=none;" vertex="1" parent="1">
          <mxGeometry x="458" y="20" width="210" height="80" as="geometry" />
        </mxCell>
        <mxCell id="wyE4UO38VLwdI6MI5VVs-246" value="performance estimation" style="text;html=1;strokeColor=none;fillColor=none;align=left;verticalAlign=middle;whiteSpace=wrap;rounded=0;fontFamily=Source Sans Pro;fontSize=20;" vertex="1" parent="1">
          <mxGeometry x="498" y="748" width="150" height="80" as="geometry" />
        </mxCell>
        <mxCell id="wyE4UO38VLwdI6MI5VVs-251" value="" style="endArrow=classic;html=1;rounded=0;exitX=0.1;exitY=0.5;exitDx=0;exitDy=0;exitPerimeter=0;entryX=1;entryY=0.5;entryDx=0;entryDy=0;" edge="1" parent="1" source="wyE4UO38VLwdI6MI5VVs-234" target="wyE4UO38VLwdI6MI5VVs-128">
          <mxGeometry width="50" height="50" relative="1" as="geometry">
            <mxPoint x="485" y="742" as="sourcePoint" />
            <mxPoint x="535" y="692" as="targetPoint" />
            <Array as="points">
              <mxPoint x="471" y="832" />
              <mxPoint x="471" y="750" />
            </Array>
          </mxGeometry>
        </mxCell>
      </root>
    </mxGraphModel>
  </diagram>
</mxfile>
